<svg width="47" height="48" viewBox="0 0 47 48" fill="none" xmlns="http://www.w3.org/2000/svg">
<path d="M23.5 1C17.5345 1.0063 11.8151 3.43153 7.59691 7.74349C3.37867 12.0555 1.00616 17.9019 1 24C1 30.1453 3.33883 35.9199 7.58731 40.2628C9.67197 42.4058 12.1518 44.1047 14.8833 45.2612C17.6148 46.4176 20.5435 47.0086 23.5 46.9999C29.4655 46.9936 35.1849 44.5684 39.4031 40.2564C43.6213 35.9445 45.9938 30.098 46 24C45.9938 17.9019 43.6213 12.0555 39.4031 7.74349C35.1849 3.43153 29.4655 1.0063 23.5 1ZM9.89953 40.1132C11.4546 38.045 13.4465 36.3626 15.7266 35.1913C18.0067 34.0201 20.516 33.3903 23.0675 33.3489C23.1473 33.3523 23.2239 33.3727 23.3037 33.3727H23.3802C23.4534 33.3727 23.52 33.3523 23.5932 33.3489C26.1799 33.3939 28.7222 34.0445 31.0245 35.2507C33.3269 36.4569 35.328 38.1867 36.8742 40.307C33.1333 43.5344 28.3951 45.3031 23.5 45.2995C18.5022 45.3086 13.6704 43.4661 9.89953 40.1132ZM23.3137 31.6315C23.2305 31.6315 23.1507 31.6451 23.0675 31.6485C21.1256 31.5812 19.2859 30.7423 17.9396 29.3102C16.5933 27.8781 15.8465 25.9657 15.8581 23.9795C15.8615 22.9742 16.0591 21.9794 16.4395 21.0522C16.82 20.1251 17.3757 19.2838 18.0748 18.5767C18.774 17.8696 19.6028 17.3106 20.5138 16.9316C21.4248 16.5527 22.4001 16.3613 23.3836 16.3684C24.3671 16.372 25.3403 16.574 26.2472 16.9629C27.1542 17.3517 27.9772 17.9198 28.6689 18.6345C29.3607 19.3492 29.9076 20.1964 30.2783 21.1277C30.649 22.0589 30.8362 23.0558 30.8292 24.0612C30.8292 28.183 27.6021 31.5328 23.5965 31.6519C23.5033 31.6485 23.4102 31.6315 23.3137 31.6315ZM38.1085 39.1643C35.536 35.694 31.8768 33.2308 27.7418 32.1858C29.1807 31.3799 30.381 30.1931 31.2169 28.7498C32.0527 27.3066 32.4934 25.6601 32.4927 23.9829C32.4888 22.7544 32.2478 21.5387 31.7837 20.4055C31.3195 19.2722 30.6412 18.2437 29.7877 17.3788C28.9342 16.5138 27.9221 15.8295 26.8095 15.3649C25.6969 14.9004 24.5055 14.6647 23.3037 14.6714C22.1019 14.6754 20.9126 14.9217 19.804 15.3962C18.6954 15.8707 17.6892 16.564 16.8431 17.4365C15.997 18.309 15.3275 19.3435 14.873 20.4809C14.4186 21.6182 14.188 22.836 14.1946 24.0646C14.2007 25.7261 14.6429 27.3555 15.475 28.7828C16.3072 30.2101 17.4988 31.3829 18.9255 32.179C14.8603 33.1997 11.2497 35.5896 8.67522 38.9637C4.81387 34.9881 2.65302 29.609 2.66679 24.0068C2.67295 18.3597 4.87021 12.9457 8.77648 8.95267C12.6828 4.9596 17.979 2.71353 23.5033 2.70723C29.0276 2.71353 34.3239 4.9596 38.2302 8.95267C42.1364 12.9457 44.3337 18.3597 44.3399 24.0068C44.3385 26.8298 43.7867 29.6242 42.7168 32.2267C41.6469 34.8293 40.0803 37.1877 38.1085 39.1643Z" fill="#231F20" stroke="black" stroke-width="2"/>
</svg>
